<svg width="24" height="26" viewBox="0 0 24 26" fill="none" xmlns="http://www.w3.org/2000/svg">
<path d="M5.854 11.6467H8.31234V14.1051H5.854V11.6467ZM5.854 16.5634H8.31234V19.0217H5.854V16.5634ZM10.7707 11.6467H13.229V14.1051H10.7707V11.6467ZM10.7707 16.5634H13.229V19.0217H10.7707V16.5634ZM15.6873 11.6467H18.1457V14.1051H15.6873V11.6467ZM15.6873 16.5634H18.1457V19.0217H15.6873V16.5634Z" fill="#C3C3C3"/>
<path d="M3.39583 25.1676H20.6042C21.9599 25.1676 23.0625 24.065 23.0625 22.7092V5.5009C23.0625 4.14512 21.9599 3.04256 20.6042 3.04256H18.1458V0.584229H15.6875V3.04256H8.3125V0.584229H5.85417V3.04256H3.39583C2.04006 3.04256 0.9375 4.14512 0.9375 5.5009V22.7092C0.9375 24.065 2.04006 25.1676 3.39583 25.1676ZM20.6042 7.95923L20.6054 22.7092H3.39583V7.95923H20.6042Z" fill="#C3C3C3"/>
</svg>
