<svg width="18" height="21" viewBox="0 0 18 21" fill="none" xmlns="http://www.w3.org/2000/svg">
<path d="M2 18.1499C2 18.6803 2.21071 19.189 2.58579 19.5641C2.96086 19.9392 3.46957 20.1499 4 20.1499H14C14.5304 20.1499 15.0391 19.9392 15.4142 19.5641C15.7893 19.189 16 18.6803 16 18.1499V6.1499H18V4.1499H14V2.1499C14 1.61947 13.7893 1.11076 13.4142 0.735689C13.0391 0.360616 12.5304 0.149902 12 0.149902H6C5.46957 0.149902 4.96086 0.360616 4.58579 0.735689C4.21071 1.11076 4 1.61947 4 2.1499V4.1499H0V6.1499H2V18.1499ZM6 2.1499H12V4.1499H6V2.1499ZM5 6.1499H14V18.1499H4V6.1499H5Z" fill="white"/>
<path d="M6 8.1499H8V16.1499H6V8.1499ZM10 8.1499H12V16.1499H10V8.1499Z" fill="white"/>
</svg>
