<svg width="19" height="19" viewBox="0 0 19 19" fill="none" xmlns="http://www.w3.org/2000/svg">
<path d="M12.543 15.9941C12.2461 15.9941 12.0234 15.7529 12.0234 15.4561V12.8213C12.0234 12.5244 12.2461 12.3018 12.543 12.3018H15.1777C15.4746 12.3018 15.7158 12.5244 15.7158 12.8213V15.4561C15.7158 15.7529 15.4746 15.9941 15.1777 15.9941H12.543ZM15.1777 12.8213H12.543V15.4561H15.1777V12.8213ZM17.8125 1.78125C18.4619 1.78125 19 2.31934 19 2.96875V17.8125C19 18.4619 18.4619 19 17.8125 19H1.1875C0.538086 19 0 18.4619 0 17.8125V2.96875C0 2.31934 0.538086 1.78125 1.1875 1.78125H5.9375V0.59375C5.9375 0.259766 6.19727 0 6.53125 0C6.86523 0 7.125 0.259766 7.125 0.59375V1.78125H11.875V0.59375C11.875 0.259766 12.1348 0 12.4688 0C12.8027 0 13.0625 0.259766 13.0625 0.59375V1.78125H17.8125ZM1.1875 17.8125H17.8125V2.96875H13.0625V3.5625C13.0625 3.89648 12.8027 4.15625 12.4688 4.15625C12.1348 4.15625 11.875 3.89648 11.875 3.5625V2.96875H7.125V3.5625C7.125 3.89648 6.86523 4.15625 6.53125 4.15625C6.19727 4.15625 5.9375 3.89648 5.9375 3.5625V2.96875H1.1875V17.8125Z" fill="#F3A452"/>
</svg>
