<svg width="22" height="17" viewBox="0 0 22 17" fill="none" xmlns="http://www.w3.org/2000/svg">
<path d="M20.1037 7.34384C20.5777 7.96384 20.5777 8.80084 20.1037 9.41984C18.6107 11.3688 15.0287 15.3818 10.8467 15.3818C6.66469 15.3818 3.08269 11.3688 1.58969 9.41984C1.35907 9.12297 1.23389 8.75775 1.23389 8.38184C1.23389 8.00592 1.35907 7.6407 1.58969 7.34384C3.08269 5.39484 6.66469 1.38184 10.8467 1.38184C15.0287 1.38184 18.6107 5.39484 20.1037 7.34384Z" stroke="white" stroke-width="2" stroke-linecap="round" stroke-linejoin="round"/>
<path d="M10.8467 11.3818C12.5035 11.3818 13.8467 10.0387 13.8467 8.38184C13.8467 6.72498 12.5035 5.38184 10.8467 5.38184C9.18983 5.38184 7.84668 6.72498 7.84668 8.38184C7.84668 10.0387 9.18983 11.3818 10.8467 11.3818Z" stroke="white" stroke-width="2" stroke-linecap="round" stroke-linejoin="round"/>
</svg>
